<?xml version="1.0" encoding="utf-8"?>
<!-- Generator: Adobe Illustrator 26.1.0, SVG Export Plug-In . SVG Version: 6.00 Build 0)  -->
<svg version="1.0" id="Layer_1" xmlns="http://www.w3.org/2000/svg" xmlns:xlink="http://www.w3.org/1999/xlink" x="0px" y="0px"
	 viewBox="0 0 387 387" style="enable-background:new 0 0 387 387;" xml:space="preserve">
<style type="text/css">
	.st0{fill:#003049;}
	.st1{fill:#FCBF49;}
	.st2{fill:#D62828;}
	.st3{fill:#D5CEA8;}
	.st4{fill:#F77F00;}
</style>
<g>
	<path class="st0" d="M290.2,217.3c-7.4-7.1-14.7-14.1-21.9-21.3c-1.5-1.6-11.6-11.8-12.9-12.4c-7,7.3-14.4,14.2-21.5,21.6
		c-5.3,5.6-10.7,11.1-16.2,16.5c-1.8,1.7-5.4,5.5-7.2,6.9c4.1,4.4,44.2,45.1,45.6,45.4c7.2-7,14.2-14,21.3-21.1
		c7.5-7.7,16.1-16.9,23.8-24.2C297.4,225,293.9,220.9,290.2,217.3z M279.3,214.2c-11.3,5-14.8,8.8-19.2,20.1l-0.1,0.3l-0.4-0.1
		c-4-11.3-9.1-16.5-20.2-20.8c11.4-4.4,16-8.9,20.1-20.6c0.9,0.7,2.2,4.5,2.9,5.7c4.5,8.9,9.7,11.6,18.4,14.7
		C280.3,213.8,279.8,214,279.3,214.2z"/>
	<path class="st1" d="M190.6,244c6.9,0.6,17.9,0.3,25.1,0.5c1.7,1.6,3.3,3.2,4.9,4.9c12.2,12.5,24.7,24.7,36.8,37.2l-27.7,27.8
		c-2.3,2.2-4.5,4.5-6.8,6.6c-3.4-4.3-11.7-12.4-15.8-16.5l-22.8-23c-5.1-5.1-10.5-10.1-15.4-15.4c3.1-2.9,7.3-7.4,10.4-10.5
		C182.5,252.3,187.8,247.4,190.6,244z"/>
	<path class="st2" d="M186.6,176.8c2,0.3,29.7,28.6,33.8,32.7c-6.5,6.4-12.7,13.1-19.2,19.6c2.3,2.2,5.1,5.3,7.3,7.6
		c-4.9-0.5-12.7-0.2-17.7-0.1l-29.6,0.2c-10.6,0.1-25,0.5-35.4-0.1c-0.5-1.4-0.8-2.8-1.1-4.2c-1.1-6.2,0-13.1,3.7-18.3
		c3-4.5,7.7-7.5,13-8.5c5-0.9,10.2,0.2,14.4,3.2c2.4-5,14.9-16.1,19.2-20.4C178.2,185.2,183.2,180.1,186.6,176.8z"/>
	<path class="st3" d="M223.1,142c1.7,0.7,24.9,24.2,27.8,27.1c-7,8.2-19.5,20.3-27.3,27.9c-0.9-0.1-25.2-25-27.9-27.8
		c4.7-4.6,9.3-9.3,14-13.9C214.2,151.2,219.2,146.7,223.1,142z"/>
	<path class="st0" d="M163.2,136.8c-1.2-12-11.9-20.9-23.9-19.7c-12.1,1.1-20.9,11.9-19.8,24c1.2,12.1,11.9,20.9,24,19.7
		C155.5,159.5,164.3,148.8,163.2,136.8z M143.2,156.6c-9.8,1-18.6-6.1-19.6-15.9c-1-9.8,6-18.6,15.8-19.7c9.9-1.1,18.7,6,19.8,15.9
		C160.2,146.8,153,155.6,143.2,156.6z"/>
	<path class="st0" d="M138.4,124.9c2-0.2,2.9-0.1,4.5,1.3l0,0.7c-4.2,4.8-9.6,0.6-12.2,12.1c0,0.7,0.1,0.4-0.4,1
		c-2.9-0.3-3.5-3.6-2.3-5.9C130.4,129.6,133.7,126.6,138.4,124.9z"/>
	<path class="st0" d="M204.8,98.6c-0.6-10.7-9.8-18.8-20.5-18.2c-10.7,0.6-18.8,9.8-18.2,20.4c0.6,10.7,9.8,18.8,20.4,18.2
		C197.3,118.4,205.4,109.3,204.8,98.6z M200,105.1c-2,5.2-6.6,9-12.1,9.8c-8.3,1.3-16.2-4.4-17.6-12.7c-1.4-8.3,4.1-16.2,12.4-17.8
		c5.5-1,11.1,1,14.7,5.3C201,94,202,99.9,200,105.1z"/>
	<path class="st0" d="M181.7,87.8c1.5-0.1,2.4,0.1,3.6,1c0.1,1.1-0.4,1.4-1.5,2.1c-4.9,2.8-5.8,4.4-7.9,9.3c-0.4,0.4-0.5,0.3-1,0.6
		c-1.9-0.7-1.8-2.4-1.3-4.1C174.9,92.6,178,89.9,181.7,87.8z"/>
	<path class="st4" d="M67.7,244.2c4,0.5,10.6,0.3,14.8,0.3c8.1-0.1,16.3-0.1,24.4-0.1c16.4,0.1,32.7,0.1,49.1,0
		c6.1,0,17.9,0.3,23.5-0.2c-1.6,1.9-3.1,3.5-4.8,5.3c-1.3,1.3-2,2.1-3.1,3.6c-6.5,0.6-19.2,0.3-26.1,0.3l-52.4,0.1
		c-5,0-20.7-0.2-25.1,0.5L67.7,244.2z"/>
	<path class="st0" d="M156.2,270.1c-0.6-0.3,12.8,12.9,13.6,13.6c-5,4.8-8.5,8.7-13.1,13.9c-0.3-0.1-12.2-12.5-13.9-14
		C148.8,278.7,151.3,275.9,156.2,270.1z"/>
	<path class="st0" d="M146.6,68.4c-2.4-2.2-5.7-2.9-8.8-2c-4.6,1.5-7.3,6.4-5.9,11.1c1.4,4.7,6.3,7.4,11,6c3.1-0.9,5.5-3.4,6.3-6.5
		C149.9,73.9,148.9,70.6,146.6,68.4z M141.5,80.5c-8.8,0-8.3-7.8-1.3-11.3C146.8,69.2,149.1,77.9,141.5,80.5z"/>
	<path class="st2" d="M289.2,166.8c0.4,0.3,0.3,0.3,0.6,0.8c4.1,7,5.2,9.5,13.1,12.5c-0.3,0.1-0.6,0.3-0.9,0.4
		c-5.9,2.7-9.9,6.3-12.2,12.4c-0.8-0.4-4-6.6-6.4-8.5c-3.3-2.6-2.8-2.4-7-4.3C284,177,285.9,174.3,289.2,166.8z"/>
	<path class="st4" d="M295.4,244.5c2.5-0.2,6.6-0.1,9.2-0.1c4.9,0.1,9.8,0,14.7-0.1l0.1,8.7l-7.1,0l-25-0.1
		C290.2,250.1,292.8,247.8,295.4,244.5z"/>
	<path class="st0" d="M179,163.5c-1.2-4.6-5.9-7.3-10.5-6.1c-4.5,1.2-7.2,5.9-6.1,10.4c1.2,4.6,5.8,7.3,10.4,6.1
		C177.4,172.8,180.2,168.1,179,163.5z M175.9,167.1c-0.7,1.9-1.9,2.7-3.5,3.5c-8,0.9-8.9-6.3-2.9-10.1c2.6-0.1,5,0.2,6.3,2.9
		C176.2,164.6,176.3,165.9,175.9,167.1z"/>
	<path class="st4" d="M83.7,228.7c6.4,0.4,12.8,0.4,19.2,0c0,2.5,0,5,0.3,7.4c-6.1-0.2-13.4-0.1-19.6,0
		C83.5,233.6,83.6,231.1,83.7,228.7z"/>
	<path class="st4" d="M282.7,258.9c2.2,0,4.3,0,6.5,0c2.9,0,5.8,0,8.6,0c-0.3,2.2-0.7,4.5-1,6.7c-3.1,0-6.3,0-9.4,0.1
		c-3.6,0-7.2,0.1-10.7,0.2C278.7,263.5,280.7,261.2,282.7,258.9z"/>
</g>
</svg>
